<?xml version="1.0" standalone="no"?>
<!DOCTYPE svg PUBLIC "-//W3C//DTD SVG 20010904//EN"
 "http://www.w3.org/TR/2001/REC-SVG-20010904/DTD/svg10.dtd">
<svg version="1.0" xmlns="http://www.w3.org/2000/svg"
 width="2924.000000pt" height="1967.000000pt" viewBox="0 0 2924.000000 1967.000000"
 preserveAspectRatio="xMidYMid meet">
<metadata>
Created by potrace 1.16, written by Peter Selinger 2001-2019
</metadata>
<g transform="translate(0.000000,1967.000000) scale(0.100000,-0.100000)"
fill="#000000" stroke="none">
<path d="M20875 19654 c-97 -24 -167 -52 -215 -84 -308 -209 -486 -781 -541
-1740 -13 -236 -7 -1109 10 -1365 60 -895 146 -1653 292 -2570 124 -779 322
-1794 485 -2485 30 -129 59 -260 64 -290 5 -30 43 -197 85 -370 395 -1639 928
-3343 1513 -4835 823 -2097 1668 -3634 2561 -4660 129 -148 402 -422 537 -538
750 -644 1484 -856 2175 -627 744 247 1209 958 1348 2060 54 429 58 987 11
1535 -224 2579 -1626 6555 -3618 10260 -1169 2174 -2373 3945 -3342 4915 -428
429 -760 666 -1071 765 -82 26 -242 42 -294 29z"/>
<path d="M8135 19643 c-344 -77 -810 -415 -1305 -948 -714 -769 -1490 -1850
-2320 -3234 -1306 -2177 -2504 -4718 -3330 -7061 -696 -1975 -1088 -3648
-1171 -5006 -15 -254 -7 -918 15 -1114 57 -522 162 -914 337 -1261 275 -544
677 -865 1239 -991 95 -21 129 -23 345 -23 224 1 248 3 361 28 742 166 1455
726 2201 1727 1247 1673 2495 4612 3433 8085 102 380 338 1321 350 1400 5 33
23 119 40 190 83 352 256 1192 339 1650 249 1368 394 2564 442 3634 13 296 7
1092 -10 1286 -60 680 -169 1107 -351 1375 -91 134 -224 233 -348 259 -51 11
-226 13 -267 4z"/>
<path d="M14632 10334 c-58 -112 -441 -1086 -629 -1604 -1279 -3517 -1624
-6131 -998 -7577 223 -517 600 -891 1054 -1048 53 -19 114 -41 137 -49 22 -8
58 -17 80 -20 21 -2 82 -12 134 -21 74 -13 132 -16 260 -12 266 9 418 39 613
122 237 102 404 212 567 375 383 382 617 955 704 1720 55 483 46 1088 -25
1720 -139 1250 -530 2793 -1147 4530 -207 582 -697 1836 -732 1874 -5 4 -13 0
-18 -10z"/>
</g>
</svg>
